<svg version="1.1" id="Layer_1" xmlns="http://www.w3.org/2000/svg" xmlns:xlink="http://www.w3.org/1999/xlink" x="0px" y="0px"
	 width="100%" viewBox="0 0 3125 1875" enable-background="new 0 0 3125 1875" xml:space="preserve">

<!-- #region background -->

<path id="background"  opacity="0" stroke="none"
	d="
M2016.000000,1878.000000 
	C1344.000000,1878.000000 673.000000,1878.000000 2.000000,1878.000000 
	C2.000000,1252.666626 2.000000,627.333313 2.000000,2.000000 
	C1044.000000,2.000000 2086.000000,2.000000 3128.000000,2.000000 
	C3128.000000,627.333313 3128.000000,1252.666626 3128.000000,1878.000000 
	C2757.666748,1878.000000 2387.333252,1878.000000 2016.000000,1878.000000 
z"/>

<!-- #endregion background -->

<!-- #region conectors -->
<path id="conectors"  opacity="1.000000" stroke="none" 
	d="	
M 2017.7219 559.7557
 C 2017.1018 560.5997 2016.4817 561.4436 2015.0791 563.1487 
 C 2013.4705 564.532 2012.468 564.8974 2011.843 565.5989 
 C 1976.2698 605.524 1940.7155 645.4658 1905.1946 685.4376 
 C 1898.8639 692.5616 1892.6848 699.8204 1886.1879 707.3022 
 C 1888.7229 710.4557 1890.7579 713.0462 1892.8545 715.5859 
 C 1910.053 736.4213 1922.3049 759.7125 1928.1824 786.2238 
 C 1928.9611 789.736 1930.3824 793.1055 1931.5061 796.541 
 C 1931.5962 810.4453 1931.6862 824.3496 1931.4832 839.9265 
 C 1926.7009 867.5052 1917.9324 891.7579 1903.3162 913.7515 
 C 1902.3602 915.2932 1901.4043 916.8348 1899.5901 919.1483 
 C 1884.3496 937.9053 1867.5975 953.1575 1847.401 964.4384 
 C 1846.6979 964.7423 1845.9946 965.0462 1843.8013 966.3657 
 C 1832.1149 971.2748 1821.9932 975.3816 1811.6935 978.9792 
 C 1805.8475 981.0212 1799.7102 982.2292 1793.7041 983.8128 
 C 1777.1478 983.9153 1760.5914 984.0178 1742.5447 983.4115 
 C 1718.3873 979.2495 1697.5955 970.9776 1678.3005 958.6537 
 C 1661.2999 947.7953 1647.5052 933.548 1634.6493 918.2506 
 C 1634.2698 917.6641 1633.8903 917.0775 1632.907 915.4489 
 C 1621.4847 898.2427 1613.5116 880.7769 1608.4791 861.9915 
 C 1606.8701 855.9858 1605.5227 849.91 1604.0557 843.8664 
 C 1603.8752 828.8463 1603.6948 813.8261 1604.3611 797.371 
 C 1609.7189 765.2321 1623.2762 738.5638 1641.9359 715.1797 
 C 1584.2914 657.5588 1527.3018 600.5925 1470.2681 543.582 
 C 1400.2216 594.1719 1329.4258 594.0261 1257.9219 543.0411 
 C 1256.4135 544.4084 1254.3851 546.0963 1252.5264 547.9537 
 C 1206.3284 594.1209 1160.1448 640.3025 1113.9794 686.5023 
 C 1112.3451 688.1378 1110.9227 689.985 1109.4016 691.7335 
 C 1108.9106 692.1848 1108.4196 692.6362 1107.1442 693.8908 
 C 1099.6754 701.088 1092.9911 707.4819 1086.6704 713.528 
 C 1093.8842 724.6997 1100.5184 734.9739 1107.1527 745.2482 
 C 1107.5238 745.5588 1107.8949 745.8694 1108.5674 747.4235 
 C 1116.8506 766.2259 1122.985 784.3381 1125.3152 803.5895 
 C 1125.4272 814.7019 1125.5394 825.8142 1125.376 838.5927 
 C 1122.1315 859.3178 1116.8142 877.6512 1108.1959 894.9647 
 C 1108.1005 895.5218 1108.005 896.0789 1107.2493 897.9214 
 C 1103.0475 904.7292 1099.506 910.2519 1095.9646 915.7745 
 C 1095.2479 916.7825 1094.5313 917.7903 1093.1145 919.8225 
 C 1090.7949 922.5062 1089.0472 924.0597 1087.575 925.8409 
 C 1065.78 952.209 1038.2329 969.9448 1005.4003 978.9177 
 C 992.8173 982.3565 980.123 987.1205 966.5344 984.9397 
 C 964.1705 985.0102 961.8066 985.0807 957.8495 984.8318 
 C 949.5565 984.2955 942.8568 984.0785 935.6138 983.2997 
 C 915.5043 979.8375 897.3228 973.0502 880.0833 963.4546 
 C 860.4023 952.4999 844.6818 937.0189 830.0288 920.2698 
 C 829.2707 918.9704 828.5126 917.6709 827.023 915.3767 
 C 815.9985 899.1764 808.3829 882.7225 803.3666 865.0677 
 C 801.4977 858.4905 799.7337 851.8835 797.9219 845.2901 
 C 797.7947 829.6425 797.6674 813.9949 798.3852 796.9058 
 C 803.1546 769.7151 812.7691 746.3095 827.9452 725.134 
 C 830.3818 721.7343 832.1525 717.8573 834.231 714.2009 
 C 834.64 714.0229 835.0491 713.8449 836.4149 713.0012 
 C 838.8875 711.0666 840.5793 709.957 841.8917 708.5044 
 C 855.6253 693.3034 871.9308 681.5356 890.2608 672.5882 
 C 908.26 663.8022 927.538 659.2842 947.2361 656.3447 
 C 956.9351 656.3973 966.7158 654.3997 976.301 657.7866 
 C 977.4763 658.2018 979.252 656.9177 981.9094 656.9879 
 C 1014.4554 662.5657 1042.4623 675.222 1067.5663 695.6611 
 C 1075.1566 688.1218 1082.5195 681.0023 1089.6532 673.6599 
 C 1095.1624 667.9896 1100.384 662.04 1105.7335 656.2147 
 C 1106.2555 655.8018 1106.8079 655.4347 1108.386 654.4895 
 C 1152.8409 610.4329 1196.3007 567.0001 1239.7629 523.5648 
 C 1224.5935 504.8713 1213.6023 485.2708 1206.9227 463.3463 
 C 1205.3019 458.026 1203.6434 452.7171 1202.0023 447.403 
 C 1199.8336 427.713 1199.8119 408.0063 1202.3823 386.9312 
 C 1204.1278 381.7658 1205.0331 377.9549 1205.9438 374.1453 
 C 1207.2184 368.8141 1208.4969 363.4838 1209.7738 358.1531 
 C 1210.4385 357.0771 1211.1031 356.0012 1212.5056 353.8904 
 C 1214.2795 350.7726 1215.3362 348.6993 1216.3491 346.6048
 C 1231.405 315.4698 1254.0914 291.518 1284.0663 274.3309 
 C 1300.8882 264.6854 1318.9636 258.5981 1337.8709 253.8422
 C 1383.2404 252.3838 1393 253 1391 253 
 C 1392 253 1392 254 1392.1809 253.8098
 C 1425.7173 262.3721 1448.8102 272.5627 1475.0851 295.3528 
 C 1475.8457 296.1789 1476.6063 297.005 1478.4258 298.6347 
 C 1482.8273 303.1332 1486.1658 306.8319 1489.5133 310.5226 
 C 1501.2635 323.4773 1509.0222 338.9809 1517.3582 354.1161 
 C 1517.5461 355.063 1517.7341 356.0099 1518.3785 358.2751 
 C 1521.6603 369.599 1524.4856 379.6047 1527.3108 389.6103 
 C 1527.481 407.8273 1527.6511 426.0444 1527.4314 445.8875
	C 1520.1028 475.5259 1508.4536 501.2924 1489.5402 523.7236 
  C 1501.6573 535.9203 1513.0846 547.4726 1524.6168 558.9191 
  C 1525.3899 559.6865 1526.9567 559.6542 1528.1543 559.9938 C 1528.1543 559.9938 1528.0165 560.0015 1527.7368 560.5227 C 1529.3857 563.1633 1531.3145 565.2827 1533.243 567.4022 C 1533.6785 567.4994 1534.1138 567.5966 1535.2656 568.6341 C 1536.7653 570.636 1537.4271 571.8188 1538.349 572.7417 C 1578.1324 612.5629 1617.9331 652.3669 1657.7683 692.1363 C 1659.0978 693.4636 1660.8043 694.4131 1662.2194 695.4538 C 1712.4006 652.7805 1796.6895 639.1529 1866.9344 688.4977 C 1869.8682 685.47 1872.9707 682.4933 1875.821 679.2921 C 1907.4233 643.7991 1939.0197 608.3007 1970.5125 572.7106 C 1973.9377 568.8398 1976.7035 564.3851 1979.7751 560.2012 C 1980.5408 559.8222 1981.3064 559.4432 1982.86 558.0651 C 1984.4459 556.473 1985.3762 555.9974 1986.0225 555.2695 C 2008.0305 530.4805 2030.0116 505.6674 2051.9277 480.9355 C 2051.6597 480.0962 2051.6147 479.3562 2051.2378 478.8773 C 2049.3914 476.53 2047.4734 474.2383 2045.5509 471.952 C 2026.7953 449.6476 2014.0935 424.3471 2009.2059 395.5666 C 2007.1085 383.2165 2006.7407 370.5727 2005.5869 358.0624 C 2005.8528 357.056 2006.1187 356.0495 2006.5598 353.5285 C 2007.8279 345.8582 2008.6892 339.6509 2010.0494 333.5549 C 2021.4937 282.2672 2050.6011 244.4366 2096.9207 219.7216 C 2113.459 210.897 2131.4971 206.717 2149.4905 202.3512 C 2162.7512 202.2535 2176.0122 202.1558 2190.7954 202.5583 C 2198.7947 204.1819 2205.2717 205.3053 2211.7488 206.4287 C 2213.051 206.555 2214.3533 206.6813 2216.9932 207.3411 C 2219.5872 208.4944 2220.8435 209.1143 2222.7354 210.078 C 2238.5383 215.7242 2252.48 223.4472 2266.2424 232.4859 C 2267.478 233.3442 2268.4697 233.7226 2269.4614 234.1011 C 2270.1218 234.6597 2270.7825 235.2183 2272.3369 236.5935 C 2274.3616 238.6244 2275.3774 239.975 2276.6392 241.0327 C 2302.0273 262.3155 2319.2747 288.8799 2328.4058 320.7133 C 2330.301 327.3212 2332.0793 333.9626 2333.9111 340.5885 C 2334.1089 357.7405 2334.3066 374.8926 2333.6741 393.4514 C 2329.4463 413.9468 2323.135 431.9648 2313.4148 448.7975 C 2302.6924 467.3659 2288.9216 483.256 2272.1938 496.6227 C 2271.7175 496.9254 2271.241 497.2281 2269.6455 498.472 C 2252.7258 510.2768 2235.9629 519.1857 2217.4595 524.5596 C 2215.6755 524.8981 2213.8918 525.2368 2211.2085 526.2075 C 2192.0728 530.0005 2173.9963 532.573 2155.1929 530.5581 C 2128.519 527.6998 2104.2698 519.122 2081.7212 505.0058 C 2078.4348 502.9483 2075.0234 501.0902 2071.1272 498.8241 C 2053.0461 519.4532 2035.384 539.6044 2017.7219 559.7557

z"/>
<!-- #endregion conectors -->

<!-- #region slogan letter 0 -->
<path id="slogan_letter_0"  opacity="1.000000" class="slogan_letter"
	d="
M155.815872,1576.247070 
	C162.814651,1576.184692 169.813431,1576.122314 177.880951,1576.827881 
	C188.507660,1597.273682 197.964905,1617.001343 207.661255,1636.610840 
	C213.525787,1648.470947 219.760956,1660.147949 225.829636,1671.907227 
	C226.689529,1675.104858 224.975769,1675.978638 222.208054,1675.968384 
	C215.305328,1675.942627 208.402512,1675.942505 200.282623,1675.189697 
	C195.658737,1667.689331 192.251923,1660.931396 188.751236,1653.987305 
	C174.400177,1653.987305 160.251343,1653.987305 145.553284,1653.987305 
	C142.231201,1661.293945 138.963226,1668.481689 135.695251,1675.669312 
	C127.858253,1675.772339 120.020638,1675.959229 112.184845,1675.900635 
	C110.780472,1675.890259 109.383690,1674.865356 108.610703,1673.011719 
	C123.949020,1642.364990 138.682861,1613.026733 153.327072,1583.643799 
	C154.476486,1581.337646 155.000931,1578.720093 155.815872,1576.247070 
M177.012924,1633.244873 
	C174.088058,1625.497070 171.163208,1617.749268 167.634674,1608.402466 
	C163.380310,1617.963501 160.067169,1625.409180 156.424957,1633.594482 
	C163.532272,1633.594482 169.478119,1633.594482 177.012924,1633.244873 
z"/>
<!-- #endregion slogan letter 0 -->

<!-- #region slogan letter 1 -->
<path id="slogan_letter_1" class="slogan_letter" opacity="1.000000" 
	d="
M371.784332,1672.226074 
	C371.365051,1672.075928 370.945801,1671.925903 369.428986,1671.183838 
	C363.706696,1667.678833 359.081940,1664.765991 354.457153,1661.853271 
	C354.365601,1661.132812 354.274078,1660.412354 354.970215,1658.801270 
	C360.872192,1653.264893 365.986481,1648.619019 371.367493,1643.730957 
	C380.776733,1650.333984 390.827423,1655.511963 402.392761,1655.794922 
	C408.189056,1655.936646 414.303345,1655.120972 419.769257,1653.257812 
	C424.983185,1651.480835 425.274841,1646.452881 420.612671,1643.383667 
	C417.104279,1641.073975 412.917633,1639.560425 408.830627,1638.412476 
	C400.241028,1635.999878 391.356140,1634.552368 382.904388,1631.763550 
	C376.704834,1629.718018 370.490784,1626.888184 365.190308,1623.128906 
	C355.929382,1616.560791 353.463928,1606.043335 358.469543,1595.872192 
	C360.894562,1590.944702 364.762512,1586.727417 367.977203,1582.188599 
	C368.861725,1582.004639 369.746246,1581.820801 371.974121,1581.370361 
	C376.878265,1579.688110 380.439117,1578.272461 385.262390,1576.354980 
	C380.170624,1575.959961 376.394836,1575.667114 372.619049,1575.374268 
	C378.151459,1575.053223 383.681366,1574.527100 389.216858,1574.459595 
	C397.482391,1574.358765 405.751831,1574.581055 415.548096,1574.764282 
	C419.554047,1576.093506 421.999969,1577.393555 424.514740,1578.542969 
	C432.982391,1582.413086 442.237000,1585.132446 446.529053,1594.681641 
	C440.922302,1599.784424 435.850616,1604.435669 430.885620,1608.989014 
	C407.896790,1594.423828 389.245117,1593.057861 381.418549,1606.450562 
	C385.691589,1608.224121 389.675415,1610.344360 393.919525,1611.542480 
	C402.837769,1614.059692 411.922791,1615.979248 420.883850,1618.353638 
	C431.491364,1621.164307 440.332733,1626.685425 446.657135,1636.494629 
	C447.573822,1639.058350 448.407318,1641.066284 449.240845,1643.074219 
	C449.434692,1646.134277 449.628510,1649.194214 449.383789,1653.773193 
	C443.364288,1666.851685 433.954041,1673.337280 421.624969,1676.039185 
	C420.101410,1676.373169 418.689606,1677.217041 417.226013,1677.824585 
	C408.823822,1677.924927 400.421631,1678.025391 390.576233,1677.423828 
	C383.350128,1675.223267 377.567230,1673.724731 371.784332,1672.226074 
z"/>
<!-- #endregion slogan letter 1 -->

<!-- #region slogan letter 2 -->
<path id="slogan_letter_2" opacity="1.000000" class="slogan_letter"
	d="
M551.818726,1576.248779 
	C558.818054,1576.185669 565.817322,1576.122559 573.882263,1576.826660 
	C580.090210,1588.358398 585.075012,1599.201660 590.408386,1609.870605 
	C600.774658,1630.607178 611.336609,1651.246094 621.817444,1671.925415 
	C622.688171,1675.139404 620.942566,1675.979004 618.190430,1675.969116 
	C611.290710,1675.943970 604.390808,1675.943359 596.276367,1675.191406 
	C591.654480,1667.692505 588.247192,1660.934937 584.746582,1653.992432 
	C570.394409,1653.992432 556.244141,1653.992432 541.470337,1653.992432 
	C538.181274,1661.278076 534.932251,1668.474854 531.683289,1675.671631 
	C523.843994,1675.773926 516.004089,1675.960205 508.166016,1675.901001 
	C506.761536,1675.890381 505.364746,1674.864990 504.599304,1673.017578 
	C519.944641,1642.373779 534.677795,1613.031982 549.322021,1583.645752 
	C550.471863,1581.338257 551.001099,1578.721802 551.818726,1576.248779 
M556.496948,1633.657104 
	C562.014099,1633.657104 567.531189,1633.657104 574.536621,1633.657104 
	C570.492432,1624.814453 567.055420,1617.299438 563.367249,1609.235229 
	C559.932373,1616.535156 556.856995,1622.749512 554.148132,1629.119507 
	C553.649536,1630.291870 554.636292,1632.095825 556.496948,1633.657104 
z"/>
<!-- #endregion slogan letter 2 -->

<!-- #region slogan letter 3 -->
<path id="slogan_letter_3"  opacity="1.000000" class="slogan_letter"
	d="
M759.456604,1638.414917 
	C753.441589,1638.740967 747.426514,1639.067017 739.615662,1639.582397 
	C727.457764,1639.771606 717.095642,1639.771606 706.157349,1639.771606 
	C706.157349,1652.651245 706.157349,1664.149170 706.157349,1675.646973 
	C698.539551,1675.646973 690.921753,1675.646973 683.339478,1675.646973 
	C681.303406,1668.504639 680.558228,1596.444092 682.353088,1576.692139 
	C709.682800,1576.692139 737.084045,1576.692139 765.619690,1576.692139 
	C765.619690,1583.362427 765.619690,1589.911499 764.597168,1597.373169 
	C744.770020,1598.285645 725.965393,1598.285645 706.822327,1598.285645 
	C706.822327,1605.113892 706.822327,1610.888062 706.822327,1617.724121 
	C724.464233,1617.724121 741.541565,1617.724121 759.456604,1617.724121 
	C759.456604,1625.313843 759.456604,1631.864380 759.456604,1638.414917 
z"/>
<!-- #endregion slogan letter 3 -->

<!-- #region slogan letter 4 -->
<path id="slogan_letter_4" opacity="1.000000" class="slogan_letter"
	d="
M909.815369,1654.354858 
	C909.815369,1661.235352 909.815369,1668.115845 909.815369,1675.491455 
	C881.521118,1675.491455 853.690125,1675.491455 825.845520,1675.491455 
	C823.923218,1668.612427 823.274963,1593.338379 825.088013,1576.703857 
	C853.043823,1576.703857 881.084778,1576.703857 910.242249,1576.703857 
	C910.242249,1583.353149 910.242249,1589.893188 909.177002,1597.323730 
	C898.129578,1598.208130 888.146973,1598.140991 878.165283,1598.213501 
	C868.334717,1598.285156 858.470520,1597.871704 848.792603,1598.479126 
	C848.792603,1604.716309 848.792603,1609.604614 848.792603,1615.665283 
	C867.352112,1615.665283 885.446289,1615.665283 903.430908,1615.665283 
	C903.430908,1623.591553 903.430908,1630.304199 903.430908,1637.841797 
	C884.759949,1637.841797 866.930237,1637.841797 848.767700,1637.841797 
	C848.767700,1643.520874 848.767700,1648.340942 848.767700,1654.354858 
	C869.425903,1654.354858 889.620667,1654.354858 909.815369,1654.354858 
z"/>
<!-- #endregion slogan letter 4 -->

<!-- #region slogan letter 5 -->
<path id="slogan_letter_5" opacity="1.000000" class="slogan_letter"
	d="
M1076.788208,1675.144287 
	C1068.045654,1675.425293 1059.303223,1675.706177 1049.451416,1675.165649 
	C1043.982910,1666.169678 1039.592773,1658.011475 1035.275879,1649.814575 
	C1032.786743,1645.088135 1028.931152,1642.367432 1023.746277,1641.235596 
	C1015.958679,1639.535522 1008.261902,1639.918213 1000.176514,1640.946289 
	C1000.176514,1653.111206 1000.176514,1664.376587 1000.176514,1675.642090 
	C992.555603,1675.642090 984.934692,1675.642090 975.931580,1675.642090 
	C975.437988,1642.834351 975.822815,1610.108765 975.695129,1576.026855 
	C995.096313,1576.026855 1013.934204,1576.026855 1034.279053,1576.559082 
	C1040.725098,1578.889282 1046.017090,1580.058228 1050.540161,1582.597046 
	C1067.874390,1592.327148 1071.385620,1614.988037 1055.744507,1628.353882 
	C1054.317139,1629.573486 1052.960693,1630.875854 1052.691040,1631.121216 
	C1061.039551,1646.373047 1068.913940,1660.758667 1076.788208,1675.144287 
M1034.338867,1617.980225 
	C1042.983887,1610.618774 1042.202271,1603.198975 1032.365601,1599.546753 
	C1030.830078,1598.976807 1029.203979,1598.312988 1027.611450,1598.291138 
	C1018.766296,1598.169556 1009.918579,1598.232910 1000.849121,1598.232910 
	C1000.849121,1606.025024 1000.849121,1612.776733 1000.849121,1620.935669 
	C1011.912170,1620.140259 1022.348083,1619.390015 1034.338867,1617.980225 
z"/>
<!-- #endregion slogan letter 5 -->

<!-- #region slogan letter 6 -->
<path id="slogan_letter_6" opacity="1.000000" class="slogan_letter" 
	d="
M1259.855103,1576.249146 
	C1266.057007,1576.177246 1272.258789,1576.105469 1279.371948,1576.923340 
	C1285.557495,1596.589111 1290.831665,1615.365234 1296.573486,1635.806274 
	C1298.423584,1629.056396 1299.735107,1624.270020 1301.047485,1619.483765 
	C1304.999512,1605.070190 1308.951904,1590.656738 1312.904053,1576.243164 
	C1319.982788,1576.167114 1327.066406,1575.923706 1334.136963,1576.127930 
	C1336.006592,1576.181763 1337.836426,1577.615845 1339.290283,1579.901001 
	C1337.750977,1584.492798 1336.441650,1587.550415 1335.486206,1590.714722 
	C1326.938354,1619.027954 1318.453003,1647.360107 1309.949219,1675.686646 
	C1301.860718,1675.766724 1293.772095,1675.846802 1284.522095,1675.096191 
	C1278.987183,1659.228271 1274.613892,1644.191040 1269.704712,1627.311890 
	C1264.727783,1644.819702 1260.343018,1660.244141 1255.958252,1675.668457 
	C1248.004028,1675.770020 1240.049805,1675.871460 1231.028809,1675.092529 
	C1226.057129,1661.299316 1222.218628,1648.365601 1218.230713,1635.478394 
	C1212.900879,1618.255493 1207.455078,1601.068604 1202.059082,1583.866211 
	C1202.059082,1581.631836 1202.059082,1579.397461 1202.059082,1576.001831 
	C1210.248535,1576.001831 1218.265381,1576.001831 1227.111694,1576.910889 
	C1232.896240,1596.256714 1237.851318,1614.693359 1242.806396,1633.130005 
	C1245.633667,1628.708130 1247.014526,1624.101318 1248.267944,1619.460205 
	C1252.156494,1605.063599 1255.996338,1590.653809 1259.855103,1576.249146 
z"/>
<!-- #endregion slogan letter 6 -->

<!-- #region slogan letter 7 -->
<path id="slogan_letter_7" opacity="1.000000" class="slogan_letter"
	d="
M 1457.1606 1677.656 C 1451.6168 1677.8177 1446.0731 1677.9795 1439.1179 1677.4121 C 1418.5295 1673.2821 1401.301 1659.4733 1398.6619 1632.4445 C 1398.5551 1629.401 1398.4484 1626.3577 1398.6279 1621.7128 C 1401.8337 1598.516 1413.2872 1583.7057 1433.8677 1575.5337 C 1436 1574 1449 1572 1467.3519 1574.4465 C 1470 1575 1476 1577 1476 1577 C 1495 1589 1503.443 1604.4879 1505.3457 1621.5548 C 1505.4819 1624.5973 1505.6182 1627.6399 1505.392 1632.2654 C 1502.6888 1650.8868 1495.0713 1664.408 1479.2792 1672.4802 C 1478.6302 1672.7562 1477.9813 1673.0323 1475.6692 1673.9081 C 1468.3909 1675.5571 1462.7758 1676.6066 1457.1606 1677.656 M 1477.1918 1612.502 C 1469.7738 1598.8452 1456.0494 1593.9399 1440.7046 1599.2308 C 1433.5527 1601.6969 1428.7374 1606.4819 1426.3798 1613.4406 C 1423.7867 1621.0942 1423.5732 1628.9011 1425.4253 1636.9441 C 1427.8191 1647.3402 1434.3658 1653.2133 1444.3219 1655.0018 C 1455.1232 1656.9424 1465.7145 1656.1818 1473.7302 1647.2417 C 1475.6588 1645.0907 1476.9686 1642.1826 1477.928 1639.4036 C 1480.8407 1630.9652 1480.3411 1622.4442 1477.1918 1612.502
z"/>
<!-- #endregion slogan letter 7 -->

<!-- #region slogan letter 8 -->
<path id="slogan_letter_8" opacity="1.000000" class="slogan_letter"
	d="
M1669.892700,1672.727417 
	C1668.757324,1673.807861 1667.656250,1675.778687 1666.481079,1675.823975 
	C1659.030273,1676.111328 1651.563232,1675.972900 1643.020752,1675.156982 
	C1637.863770,1666.784668 1633.677124,1659.287109 1629.744263,1651.658813 
	C1626.250366,1644.881958 1620.585815,1641.159302 1613.303955,1640.451904 
	C1607.158203,1639.854736 1600.908447,1640.328857 1593.546265,1640.328857 
	C1593.546265,1652.682739 1593.546265,1664.169800 1593.546265,1675.656738 
	C1585.970215,1675.656738 1578.394287,1675.656738 1570.271606,1675.656738 
	C1570.271606,1642.594727 1570.271606,1610.076050 1570.271606,1576.163208 
	C1588.909424,1576.100464 1607.744263,1576.037231 1628.103882,1576.505859 
	C1633.410522,1578.259888 1637.376587,1579.091431 1640.942749,1580.771240 
	C1657.739258,1588.684204 1662.154785,1603.718384 1657.184448,1616.740234 
	C1654.935791,1622.631470 1649.618774,1627.351562 1645.893433,1632.336060 
	C1649.745483,1638.703369 1653.848511,1645.391602 1657.856445,1652.136353 
	C1661.917480,1658.970825 1665.884521,1665.861328 1669.892700,1672.727417 
M1608.893311,1598.198853 
	C1604.045654,1598.198853 1599.197876,1598.198853 1594.274902,1598.198853 
	C1594.274902,1606.196899 1594.274902,1612.927612 1594.274902,1620.184326 
	C1603.114990,1620.184326 1611.338745,1620.295288 1619.555908,1620.111450 
	C1621.805664,1620.061157 1624.140625,1619.388916 1626.252930,1618.543457 
	C1630.432861,1616.870239 1633.886353,1614.292603 1633.649048,1609.166626 
	C1633.407471,1603.947754 1630.782349,1600.327393 1625.441040,1599.540405 
	C1620.589722,1598.825317 1615.662354,1598.625854 1608.893311,1598.198853 
z"/>
<!-- #endregion slogan letter 8 -->

<!-- #region slogan letter 9 -->
<path id="slogan_letter_9" opacity="1.000000" class="slogan_letter"
	d="
M1751.755127,1576.156006 
	C1752.734253,1601.795898 1752.734253,1627.332886 1752.734253,1654.178101 
	C1770.474609,1654.178101 1787.954590,1654.178101 1806.308228,1654.234375 
	C1807.181763,1661.169067 1807.181763,1668.047607 1807.181763,1675.454224 
	C1780.911377,1675.454224 1755.107910,1675.454224 1728.072754,1675.454224 
	C1727.272095,1642.820679 1727.913330,1610.112427 1727.674316,1576.053223 
	C1735.753174,1576.053223 1743.264526,1576.053223 1751.755127,1576.156006 
z"/>
<!-- #endregion slogan letter 9 -->

<!-- #region slogan letter 10 -->
<path id="slogan_letter_10" opacity="1.000000" class="slogan_letter" 
	d="
M1926.315918,1675.733887 
	C1906.122070,1675.733887 1885.928101,1675.733887 1865.019897,1675.733887 
	C1865.019897,1642.755493 1865.019897,1610.104248 1865.019897,1576.057373 
	C1882.380737,1576.057373 1899.816772,1576.057373 1918.801514,1576.548828 
	C1942.590210,1579.983398 1958.739868,1592.140991 1961.328613,1621.149048 
	C1961.453369,1624.294067 1961.578125,1627.439087 1961.407715,1632.230591 
	C1959.241699,1655.824097 1949.551514,1667.968628 1928.905762,1674.312134 
	C1927.984009,1674.595459 1927.176636,1675.251465 1926.315918,1675.733887 
M1889.670410,1607.263428 
	C1889.670410,1622.761719 1889.670410,1638.260010 1889.670410,1654.244019 
	C1897.745850,1654.244019 1904.372559,1654.246094 1910.999146,1654.242676 
	C1912.664062,1654.241821 1914.340454,1654.346313 1915.991943,1654.192383 
	C1926.270386,1653.233521 1932.915161,1648.130127 1934.631592,1637.875488 
	C1935.814209,1630.809692 1935.697632,1623.292480 1934.755615,1616.162720 
	C1933.495850,1606.628052 1927.452148,1601.193115 1917.665771,1599.335327 
	C1908.399414,1597.576294 1899.339233,1598.560303 1889.671143,1598.340210 
	C1889.671143,1601.413086 1889.671143,1603.372925 1889.670410,1607.263428 
z"/>
<!-- #endregion slogan letter 10 -->

<!-- #region slogan letter 11 -->
<path id="slogan_letter_11" opacity="1.000000" class="slogan_letter" 
	d="
M2122.170166,1675.646484 
	C2114.560059,1675.646484 2106.950195,1675.646484 2097.843262,1675.646484 
	C2097.554688,1642.896729 2097.758057,1610.208496 2097.731445,1576.019897 
	C2125.130371,1575.990112 2152.135254,1575.989258 2180.235840,1576.027100 
	C2180.235840,1583.371826 2180.235840,1589.906738 2179.172363,1597.334473 
	C2159.619385,1598.227295 2141.130371,1598.227295 2123.009766,1598.227295 
	C2123.009766,1605.470703 2123.009766,1611.281250 2123.009766,1617.351440 
	C2140.445068,1618.154419 2157.272461,1616.919678 2173.616455,1618.024048 
	C2173.616455,1625.776733 2173.616455,1632.282471 2173.616455,1639.816406 
	C2156.184326,1639.816406 2139.412598,1639.816406 2122.170166,1639.816406 
	C2122.170166,1652.469604 2122.170166,1664.057983 2122.170166,1675.646484 
z"/>
<!-- #endregion slogan letter 11 -->

<!-- #region slogan letter 12 -->
<path id="slogan_letter_12" opacity="1.000000" class="slogan_letter"
	d="
M 2286 1575 C 2287 1575 2302 1574 2306.6426 1575.7701 C 2324.8989 1582.4919 2336.2964 1594.4987 2340.6909 1613.1099 C 2340.8232 1613.6698 2341.4944 1614.1027 2341.9143 1614.5947 C 2342.1091 1622.2893 2342.3037 1629.9839 2341.667 1639.0223 C 2337.4368 1654.0016 2330.7004 1665.3026 2317.6941 1671.6993 C 2312.4946 1674.2566 2306.7932 1675.7928 2301.3203 1677.7939 C 2293.5405 1677.9037 2285.7607 1678.0134 2276.5513 1677.429 C 2254.9495 1672.7313 2241.925 1661.2041 2237.2539 1640.8333 C 2237.1282 1640.2847 2236.4272 1639.868 2235.9944 1639.3899 C 2235.8413 1631.6876 2235.6882 1623.9855 2236.3628 1614.9238 C 2241.5337 1595.3248 2252.1536 1582.9205 2270.4976 1577.6476 C 2270.9128 1577.5282 2271.1353 1576.7372 2286 1575 M 2283.9714 1655.5568 C 2308.5913 1656.2329 2317.1992 1647.5608 2316.311 1622.9775 C 2316.2871 1622.3129 2316.3123 1621.6453 2316.26 1620.9833 C 2315.3853 1609.9454 2309.1558 1601.7936 2299.2397 1598.6967 C 2287.4854 1595.0253 2273.2595 1598.2855 2267.1287 1606.5112 C 2259.7087 1616.4662 2260.4866 1627.906 2262.9597 1639.0341 C 2265.1492 1648.8856 2272.9241 1653.4144 2283.9714 1655.5568
z"/>
<!-- #endregion slogan letter 12 -->

<!-- #region slogan letter 13 -->
<path id="slogan_letter_13" opacity="1.000000" class="slogan_letter"
	d="
M2507.261963,1673.764160 
	C2505.749756,1674.507690 2504.255371,1675.846191 2502.721680,1675.892578 
	C2495.657471,1676.107056 2488.582520,1675.961304 2480.309570,1675.211914 
	C2474.970947,1666.902344 2470.692383,1659.398315 2466.742920,1651.724854 
	C2463.797119,1646.001099 2459.495117,1642.363525 2453.141602,1641.155396 
	C2445.664307,1639.733765 2438.236572,1639.570312 2430.177490,1641.356445 
	C2430.177490,1653.085938 2430.177490,1664.364990 2430.177490,1675.644165 
	C2422.610840,1675.644165 2415.043945,1675.644165 2406.894531,1675.644165 
	C2406.894531,1642.466919 2406.894531,1609.783325 2406.894531,1576.018555 
	C2425.771240,1576.018555 2444.274658,1576.018555 2464.284180,1576.555176 
	C2471.589844,1579.388184 2477.912842,1580.857178 2483.090088,1584.135742 
	C2498.712402,1594.029175 2500.522949,1613.614624 2487.557373,1626.732788 
	C2485.743896,1628.567627 2483.811768,1630.285034 2482.447266,1631.573120 
	C2486.626709,1638.508179 2490.567627,1644.916992 2494.376953,1651.403442 
	C2498.733398,1658.820923 2502.972168,1666.307373 2507.261963,1673.764160 
M2433.545166,1620.203369 
	C2442.470703,1619.995728 2451.459717,1620.363159 2460.301270,1619.392334 
	C2466.976807,1618.659424 2470.300049,1614.309448 2470.337891,1609.030029 
	C2470.378418,1603.399658 2467.631104,1599.677246 2460.264648,1599.023926 
	C2450.569824,1598.164185 2440.741211,1598.812866 2429.732178,1598.812866 
	C2430.442871,1606.412231 2431.070801,1613.127441 2433.545166,1620.203369 
z"/>
<!-- #endregion slogan letter 13 -->

<!-- #region slogan letter 14 -->
<path id="slogan_letter_14" opacity="1.000000" class="slogan_letter"
	d="
M2657.993896,1675.669189 
	C2649.062256,1675.544189 2640.130859,1675.419312 2631.241455,1673.906494 
	C2632.191895,1671.137085 2633.249268,1669.830322 2633.985840,1668.362549 
	C2647.979248,1640.472656 2661.974854,1612.583862 2675.831543,1584.626099 
	C2677.111328,1582.043945 2677.455078,1578.997803 2678.233643,1576.167114 
	C2685.584473,1576.112915 2692.935547,1576.058716 2701.188477,1576.840332 
	C2716.865479,1607.917114 2731.629395,1638.163696 2746.449707,1668.382690 
	C2747.162354,1669.836060 2748.375000,1671.044434 2749.354492,1672.367065 
	C2749.987549,1676.030640 2747.430420,1675.956787 2745.055176,1675.967163 
	C2738.065430,1675.997559 2731.075684,1675.975342 2723.000488,1675.144165 
	C2718.503906,1667.515381 2715.092529,1660.716309 2711.689697,1653.934448 
	C2697.047363,1653.934448 2682.820557,1653.934448 2668.677002,1653.934448 
	C2665.015137,1661.384399 2661.504639,1668.526855 2657.993896,1675.669189 
M2681.965332,1627.215942 
	C2681.310059,1628.977661 2680.654541,1630.739380 2679.763428,1633.135498 
	C2686.936035,1633.135498 2693.269043,1633.135498 2700.898682,1633.135498 
	C2697.302246,1625.050781 2694.116211,1617.888184 2690.280029,1609.264160 
	C2687.258301,1615.803589 2684.950439,1620.798340 2681.965332,1627.215942 
z"/>
<!-- #endregion slogan letter 14 -->

<!-- #region slogan letter 15 -->
<path id="slogan_letter_15" opacity="1.000000" class="slogan_letter"
	d="
M2833.266357,1576.105957 
	C2834.202148,1601.759399 2834.202148,1627.289185 2834.202148,1654.143555 
	C2851.960205,1654.143555 2869.751709,1654.143555 2888.429443,1654.181030 
	C2889.315918,1661.116577 2889.315918,1668.014648 2889.315918,1675.450439 
	C2862.283691,1675.450439 2835.840088,1675.450439 2808.843994,1675.450439 
	C2808.843994,1642.538330 2808.843994,1610.044434 2808.843994,1576.078125 
	C2816.670410,1576.046143 2824.500488,1576.014282 2833.266357,1576.105957 
z"/>
<!-- #endregion slogan letter 15 -->

<!-- #region slogan letter 16 -->
<path id="slogan_letter_16" opacity="1.000000" class="slogan_letter"
	d="
M2969.266357,1576.105957 
	C2970.202148,1601.760132 2970.202148,1627.290649 2970.202148,1654.143555 
	C2987.958008,1654.143555 3005.750488,1654.143555 3024.429443,1654.181030 
	C3025.315918,1661.116455 3025.315918,1668.014404 3025.315918,1675.451172 
	C2998.287598,1675.451172 2971.840332,1675.451172 2944.839844,1675.451172 
	C2944.839844,1642.540161 2944.839844,1610.043579 2944.839844,1576.078003 
	C2952.667480,1576.046143 2960.499023,1576.014282 2969.266357,1576.105957 
z"/>
<!-- #endregion slogan letter 16 -->

<!-- #region inner rings -->
<path id="inner_ring_1" opacity="1.000000" stroke="none" 
	d="
M1452.183594,524.245605 
	C1428.940918,542.935913 1402.951660,553.396179 1374.034424,555.419067 
	C1343.953247,557.523438 1315.832764,549.985168 1290.545288,533.601074 
	C1256.382690,511.466827 1235.152100,480.028564 1228.531738,439.876221 
	C1215.987671,363.797760 1267.951294,293.881104 1340.884277,281.652710 
	C1387.778198,273.790192 1429.058838,286.414581 1462.383423,320.065948 
	C1521.651978,379.915344 1512.940063,474.217438 1452.183594,524.245605 
M1291.205078,330.142059 
	C1259.739380,356.298157 1247.434692,390.751862 1250.757202,430.387695 
	C1253.462769,462.664856 1269.869751,488.406189 1295.693237,507.953339 
	C1310.572754,519.216248 1327.310669,526.030396 1345.833862,528.643860 
	C1391.112915,535.032715 1428.602539,520.992798 1456.302612,484.550446 
	C1476.423584,458.079285 1482.100708,427.477264 1476.034058,394.817108 
	C1467.155396,347.019226 1424.169312,308.314331 1375.996338,304.158142 
	C1344.689575,301.457092 1316.782715,309.513824 1291.205078,330.142059 
z"/>
<path id="inner_ring_2" opacity="1.000000" stroke="none" 
	d="
M1831.735107,698.007568 
	C1859.687134,713.514465 1880.389160,734.852173 1893.618164,763.330505 
	C1917.366455,814.453735 1906.238403,874.703186 1869.769653,913.781799 
	C1847.306519,937.852661 1820.132202,953.154480 1787.756470,957.265320 
	C1743.796265,962.847168 1704.811646,950.991516 1672.313599,919.760864 
	C1647.982666,896.379028 1633.957275,867.759766 1630.669556,834.618042 
	C1627.088135,798.515930 1636.196167,765.130920 1658.911499,736.368286 
	C1683.127197,705.705505 1714.786499,688.086914 1753.853271,683.446167 
	C1781.231445,680.193909 1806.584961,686.115173 1831.735107,698.007568 
M1844.235840,905.198730 
	C1845.547363,904.179565 1847.023682,903.315002 1848.146606,902.118652 
	C1874.791138,873.729431 1886.502930,840.539917 1880.282593,801.636719 
	C1871.207275,744.876404 1818.779663,702.570312 1759.629150,707.348389 
	C1728.746338,709.843018 1703.616699,722.641724 1683.023804,744.759644 
	C1665.441162,763.644287 1656.064209,786.734436 1654.512451,812.371948 
	C1652.392578,847.395752 1663.797119,877.526855 1689.048218,902.477295 
	C1730.625854,943.559875 1799.570312,945.406799 1844.235840,905.198730 
z"/>
<path id="inner_ring_0" opacity="1.000000" stroke="none" 
	d="
M831.098816,775.380981 
	C850.243103,725.775879 885.205811,695.047668 936.519714,685.103027 
	C981.879272,676.312317 1021.947388,689.236267 1056.042603,720.464661 
	C1077.898804,740.483032 1091.404663,765.326843 1097.146362,794.155640 
	C1108.112915,849.219666 1083.943359,905.329834 1037.137207,936.165466 
	C989.782043,967.362793 926.113647,966.160950 879.683716,931.816345 
	C835.433716,899.084167 814.211060,842.990906 827.351501,788.596619 
	C828.365540,784.399109 829.613403,780.258179 831.098816,775.380981 
M854.427612,781.788147 
	C846.756836,803.678162 845.514282,825.881042 851.076172,848.446716 
	C864.085754,901.229370 913.433899,935.168274 963.232483,934.536377 
	C1018.584229,933.833740 1073.910278,890.051147 1075.491455,822.542297 
	C1076.362183,785.369568 1061.215942,754.726929 1032.349854,731.510620 
	C1005.198120,709.673035 973.662842,702.327942 939.701172,709.065491 
	C898.762878,717.187134 870.846558,741.855774 854.427612,781.788147 
z"/>
<path id="inner_ring_3" opacity="1.000000" stroke="none" 
	d="
M2221.001465,495.203888 
	C2186.349121,507.713654 2152.399170,507.891418 2119.047607,493.936401 
	C2074.434326,475.269257 2046.403198,441.792725 2036.290649,394.662292 
	C2024.269165,338.634796 2048.240723,281.826477 2096.627441,251.051956 
	C2179.708984,198.211014 2286.859619,244.994247 2306.264404,338.687683 
	C2316.179688,386.560577 2303.036133,428.169739 2269.747314,463.410919 
	C2256.354248,477.589569 2239.985596,487.840820 2221.001465,495.203888 
M2083.354248,439.539429 
	C2084.728027,440.988495 2086.139893,442.403717 2087.470459,443.891541 
	C2118.895264,479.033600 2168.068115,488.917297 2210.616699,473.991272 
	C2254.959961,458.435669 2290.583984,411.023865 2284.456055,355.635742 
	C2280.552490,320.354065 2264.268311,292.688324 2235.519775,272.594940 
	C2209.155029,254.167633 2179.614258,250.046555 2148.236572,255.514069 
	C2096.625000,264.507324 2058.684326,312.305939 2057.646973,363.414124 
	C2057.078369,391.434753 2065.149902,416.406250 2083.354248,439.539429 
z"/>
<!-- #endregion inner rings -->

<!-- #region first circle -->

<path id="first_circle" opacity="1.000000" stroke="none"
	d="
M854.713257,781.062256 
	C870.846558,741.855774 898.762878,717.187134 939.701172,709.065491 
	C973.662842,702.327942 1005.198120,709.673035 1032.349854,731.510620 
	C1061.215942,754.726929 1076.362183,785.369568 1075.491455,822.542297 
	C1073.910278,890.051147 1018.584229,933.833740 963.232483,934.536377 
	C913.433899,935.168274 864.085754,901.229370 851.076172,848.446716 
	C845.514282,825.881042 846.756836,803.678162 854.713257,781.062256 
z"/>
<circle id="first_inner_circle" cx="960" cy="820" r="0"  fill="#FE7E32"/>
<circle id="outer_ring_0" cx="960" cy="820" r="150" stroke="#1C1C27" stroke-width="25" fill="transparent"/>
<!-- #endregion first circle -->

<!-- #region second circle -->
<path id="second_circle" opacity="1.000000" stroke="none"
	d="
M1291.723389,329.651672 
	C1316.782715,309.513824 1344.689575,301.457092 1375.996338,304.158142 
	C1424.169312,308.314331 1467.155396,347.019226 1476.034058,394.817108 
	C1482.100708,427.477264 1476.423584,458.079285 1456.302612,484.550446 
	C1428.602539,520.992798 1391.112915,535.032715 1345.833862,528.643860 
	C1327.310669,526.030396 1310.572754,519.216248 1295.693237,507.953339 
	C1269.869751,488.406189 1253.462769,462.664856 1250.757202,430.387695 
	C1247.434692,390.751862 1259.739380,356.298157 1291.723389,329.651672 
z"/>
<circle id="second_inner_circle" cx="1365" cy="415" r="0"  fill="#FE7E32"/>
<circle id="outer_ring_1" cx="1365" cy="415" r="150" stroke="#1C1C27" stroke-width="25" fill="transparent"/>
<!-- #endregion second circle -->

<!-- #region third circle -->
<path id="third_circle" opacity="1.000000" stroke="none" 
	d="
M1843.703613,905.681152 
	C1799.570312,945.406799 1730.625854,943.559875 1689.048218,902.477295 
	C1663.797119,877.526855 1652.392578,847.395752 1654.512451,812.371948 
	C1656.064209,786.734436 1665.441162,763.644287 1683.023804,744.759644 
	C1703.616699,722.641724 1728.746338,709.843018 1759.629150,707.348389 
	C1818.779663,702.570312 1871.207275,744.876404 1880.282593,801.636719 
	C1886.502930,840.539917 1874.791138,873.729431 1848.146606,902.118652 
	C1847.023682,903.315002 1845.547363,904.179565 1843.703613,905.681152 
z"/>
<circle id="third_inner_circle" cx="1770" cy="820" r="0"  fill="#FE7E32"/>
<circle id="outer_ring_2" cx="1770" cy="820" r="150" stroke="#1C1C27" stroke-width="25" fill="transparent"/>
<!-- #endregion third circle -->

<!-- #region fourth circle -->
<path id="fourth_circle" opacity="1.000000" stroke="none" 
	d="
M2082.920898,438.970673 
	C2065.149902,416.406250 2057.078369,391.434753 2057.646973,363.414124 
	C2058.684326,312.305939 2096.625000,264.507324 2148.236572,255.514069 
	C2179.614258,250.046555 2209.155029,254.167633 2235.519775,272.594940 
	C2264.268311,292.688324 2280.552490,320.354065 2284.456055,355.635742 
	C2290.583984,411.023865 2254.959961,458.435669 2210.616699,473.991272 
	C2168.068115,488.917297 2118.895264,479.033600 2087.470459,443.891541 
	C2086.139893,442.403717 2084.728027,440.988495 2082.920898,438.970673 
z"/>
<circle id="fourth_inner_circle" cx="2170" cy="365" r="0"  fill="#FE7E32"/>
<circle id="outer_ring_3" cx="2170" cy="365" r="150" stroke="#1C1C27" stroke-width="25" fill="transparent"/>
<!-- #endregion fourth circle -->

<!-- #region letter 0 part 1 -->
<path id="main_letter_0_1" class="main_letter" 
	d="
M158.967926,1157.103516 
	C168.732056,1152.061523 178.798111,1150.194580 189.232117,1150.190918 
	C244.200119,1150.171387 299.168121,1150.213867 354.136108,1150.211182 
	C374.679413,1150.210083 393.025085,1157.005127 407.850830,1170.774292 
	C421.923279,1183.843750 432.094238,1199.981689 434.910248,1219.576538 
	C435.471558,1223.482300 437.670898,1227.098755 436.237366,1231.395508 
	C425.267365,1230.624512 414.943787,1230.790283 404.641785,1230.975464 
	C397.039612,1231.112183 392.325439,1228.387573 389.524078,1220.901123 
	C383.288940,1204.237915 372.417175,1197.022339 354.490631,1196.969971 
	C300.877106,1196.813721 247.263260,1196.874756 193.649521,1196.883057 
	C187.148987,1196.884033 181.096771,1197.984131 174.689911,1201.614746 
	C173.188446,1204.182129 171.122086,1204.804077 169.608841,1206.038330 
	C160.323959,1213.611084 155.311935,1223.145752 155.327332,1235.361206 
	C155.396500,1290.265869 155.320892,1345.170654 155.314209,1400.075439 
	C155.312744,1412.151123 163.587723,1424.187866 174.989685,1428.645142 
	C181.553635,1431.211304 188.350311,1432.274292 195.448471,1432.255981 
	C238.713333,1432.144775 281.978607,1432.200562 325.243744,1432.199463 
	C327.573425,1432.199463 329.915924,1432.343628 332.230164,1432.151733 
	C337.300537,1431.731689 339.474609,1433.836670 339.348541,1439.015503 
	C339.146210,1447.329590 339.315216,1455.653198 339.361542,1463.972656 
	C339.385620,1468.297607 339.483093,1472.622070 339.064667,1477.810303 
	C337.683289,1478.859863 336.787537,1478.847412 335.239441,1478.453735 
	C330.969360,1477.750854 327.332031,1478.067261 323.025177,1477.982666 
	C321.444153,1477.984619 320.543396,1477.984131 318.974792,1477.983276 
	C315.682556,1477.975220 313.058136,1477.978394 309.813049,1477.927002 
	C308.790314,1477.874634 308.388397,1477.840698 307.409912,1477.680664 
	C305.768097,1477.219116 304.711090,1476.843750 303.031647,1476.981689 
	C302.134949,1477.183716 301.776001,1477.279907 300.863342,1477.488281 
	C299.157745,1477.743164 298.009338,1477.680908 296.277039,1477.467529 
	C293.660553,1476.926880 291.702454,1477.496460 289.082642,1477.866943 
	C286.195740,1477.991943 283.952698,1477.974243 281.006104,1477.899170 
	C277.906403,1477.439087 275.511169,1477.557251 272.335083,1477.916870 
	C263.787140,1478.031250 256.020172,1477.969482 247.398285,1477.992920 
	C245.969406,1477.993896 245.395554,1477.994141 243.956650,1477.994263 
	C232.598953,1477.988770 222.106308,1477.990845 210.764587,1477.992676 
	C209.358627,1477.993408 208.801773,1477.993408 207.420456,1477.993164 
	C203.413101,1477.990112 200.230179,1477.985229 196.299347,1477.984863 
	C194.117661,1477.980591 192.684067,1477.967163 190.589325,1477.874512 
	C188.277557,1477.638428 186.685516,1476.968994 184.383179,1477.338623 
	C182.576782,1477.678833 181.358322,1477.754639 179.520142,1477.569580 
	C177.710724,1477.142700 176.587631,1476.618652 174.869339,1475.888916 
	C173.888245,1475.497681 173.490311,1475.343262 172.476501,1474.984863 
	C170.117538,1474.254150 168.323639,1473.968384 165.805328,1473.480347 
	C133.053177,1462.369629 107.308098,1428.674805 110.420151,1390.535278 
	C111.648285,1375.483765 110.433693,1360.086670 110.201202,1344.851318 
	C109.593864,1305.051025 110.659851,1265.239258 110.315834,1225.427612 
	C110.252701,1218.121094 112.143738,1210.924561 115.956589,1203.625244 
	C119.235916,1196.211182 122.666000,1189.744385 127.624481,1183.346069 
	C136.424484,1173.285522 145.459747,1164.613281 157.364380,1158.333862 
	C157.798370,1157.788818 157.927795,1157.840942 157.894104,1157.902100 
	C157.860397,1157.963257 158.613892,1157.409058 158.967926,1157.103516 
z"/>
<!-- #endregion letter 0 part 1 -->
<!-- #region letter 0 part 2 -->
<path  class="main_letter" id="main_letter_0_2" 
	d="
M275.430481,1295.100220 
	C325.928314,1294.187012 376.141724,1294.121338 426.355164,1294.111816 
	C435.830841,1294.109985 437.096710,1295.313599 437.136383,1305.222778 
	C437.244232,1332.159668 437.159454,1359.097046 437.172760,1386.034302 
	C437.187347,1415.632080 436.991943,1445.233398 437.453247,1474.824463 
	C437.544830,1480.697876 435.352112,1481.562378 430.667053,1481.488647 
	C417.707520,1481.284668 404.745789,1481.223267 391.183899,1480.623047 
	C400.738953,1475.279541 411.528687,1479.800293 419.696442,1477.995117 
	C415.658539,1477.965088 409.422577,1478.077148 403.189209,1477.968506 
	C392.926147,1477.789429 392.060547,1476.981689 392.037781,1466.250244 
	C391.959534,1429.331909 392.017761,1392.413452 392.003876,1355.494995 
	C391.998047,1340.020142 391.983582,1340.004883 376.417786,1339.996582 
	C347.149139,1339.980957 317.880463,1340.033325 288.611908,1339.971313 
	C276.921326,1339.946655 275.248505,1338.385132 275.086975,1326.894043 
	C274.942108,1316.587769 274.864380,1306.275635 275.430481,1295.100220 
z"/>
<!-- #endregion letter 0 part 2 -->
<!-- #region letter 1 -->
<path class="main_letter" id="main_letter_1" 
	d="
M485.801147,1152.937988 
	C488.491577,1149.790527 491.619385,1150.802246 494.511475,1150.800171 
	C572.106445,1150.746582 649.701538,1150.808105 727.296448,1150.736938 
	C759.666443,1150.707275 784.066589,1165.198608 801.537903,1191.712646 
	C809.340210,1203.553223 813.253540,1217.018677 813.488525,1231.324585 
	C813.658020,1241.645630 813.808228,1251.980225 813.489258,1262.293823 
	C812.525208,1293.464966 798.345825,1316.749878 770.447876,1332.081787 
	C768.971497,1332.974854 767.807678,1332.925781 766.419739,1333.656982 
	C766.004883,1333.997681 766.000000,1334.000000 765.995605,1334.002441 
	C750.636719,1340.613770 734.428406,1340.270874 718.193420,1340.057861 
	C712.603760,1339.984375 706.926758,1339.187622 700.655640,1341.338501 
	C696.739807,1343.325806 697.624878,1345.290771 699.278076,1347.353638 
	C703.834045,1353.038452 708.229004,1358.861328 712.968201,1364.388916 
	C726.775635,1380.493286 740.745300,1396.458374 754.604492,1412.518433 
	C771.710571,1432.341064 788.784973,1452.191284 805.810669,1472.083008 
	C806.852539,1473.300171 807.347168,1474.985596 808.121704,1477.156250 
	C790.354980,1479.610474 772.551147,1478.856689 754.762024,1477.914551 
	C751.307190,1477.731689 748.878479,1475.083374 746.665771,1472.506592 
	C710.763550,1430.697998 674.999939,1388.770142 639.109802,1346.951294 
	C635.442627,1342.678223 631.717712,1340.704224 626.406494,1340.741211 
	C596.154785,1340.952148 565.895630,1339.951904 534.873901,1341.504639 
	C531.064636,1345.385132 531.657715,1349.805664 531.663330,1354.072144 
	C531.717041,1395.138916 531.804871,1436.205688 531.861328,1477.272461 
	C531.862183,1477.915039 531.590393,1478.557739 530.653381,1479.540039 
	C519.879883,1480.122559 509.897034,1480.005859 499.915619,1479.971069 
	C487.315826,1479.927246 486.060852,1478.736572 486.031433,1466.366333 
	C485.960236,1436.419312 486.177856,1406.470947 485.956604,1376.525391 
	C485.762543,1350.261230 486.893311,1323.984863 484.835999,1296.888428 
	C485.352844,1292.643555 488.082336,1294.086304 490.152740,1294.085815 
	C568.377563,1294.069946 646.602478,1294.065430 724.827148,1294.162842 
	C733.980530,1294.174316 742.726440,1293.019897 751.437683,1288.027710 
	C762.481079,1282.379272 764.916077,1272.125122 766.651611,1262.087769 
	C768.449646,1251.688110 768.717224,1241.035889 767.502136,1230.434814 
	C765.137451,1209.803223 757.220459,1201.490601 735.658325,1198.048706 
	C657.611084,1197.963989 580.437012,1198.012573 503.262909,1197.982300 
	C498.942963,1197.980591 494.612732,1198.215088 489.396851,1197.317383 
	C484.675659,1193.514404 486.203674,1188.913452 486.070282,1184.764771 
	C485.739594,1174.478271 486.314941,1164.176392 485.801147,1152.937988 
z"/>
<!-- #endregion letter 1 -->
<!-- #region letter 2 part 1 -->
<path class="main_letter" id="main_letter_2_1"  
	d="
M862.538086,1152.854980 
	C866.310364,1149.028076 871.051331,1151.076294 875.513550,1150.871826 
	C884.142700,1150.476074 892.808228,1150.949097 901.449402,1150.715576 
	C906.639404,1150.575317 908.675476,1153.206909 908.993958,1157.836304 
	C909.153503,1160.154053 909.054626,1162.490356 909.054749,1164.818237 
	C909.059143,1241.645508 909.055969,1318.472778 909.067261,1395.300049 
	C909.070740,1418.754883 920.731750,1431.250610 944.587158,1432.345581 
	C959.192993,1433.016113 973.848999,1432.599976 988.482483,1432.658691 
	C999.880920,1432.704346 1000.925110,1433.589844 1001.076416,1445.021240 
	C1001.225952,1456.316528 1001.080017,1467.615601 1000.332275,1479.288574 
	C982.433411,1477.509033 965.147400,1478.470825 947.968079,1478.636963 
	C933.303955,1478.778687 920.395813,1475.032349 908.657959,1467.089966 
	C892.512634,1456.165527 876.164551,1445.336182 864.305359,1428.299072 
	C863.792480,1338.003296 864.146240,1248.583740 863.930908,1158.223145 
	C863.741699,1156.037842 863.443542,1154.831909 862.538086,1152.854980 
z"/>
<!-- #endregion letter 2 part 1 -->
<!-- #region letter 2 part 2 -->
<path class="main_letter" id="main_letter_2_2" 
	d="
M1165.965698,1151.495850 
	C1171.641724,1150.457764 1176.736816,1150.746460 1182.664429,1151.153320 
	C1190.000854,1154.579468 1188.729126,1160.763306 1188.874146,1166.228516 
	C1189.833740,1202.402466 1188.920532,1238.580078 1188.915161,1274.756470 
	C1188.909668,1312.928711 1189.540405,1351.098022 1189.049072,1389.274780 
	C1188.868530,1403.313232 1188.970947,1417.213135 1182.959473,1431.225708 
	C1175.293945,1449.141235 1163.654907,1462.431885 1146.419189,1471.307861 
	C1145.399536,1471.369873 1145.051636,1471.344238 1144.327881,1471.682617 
	C1143.840698,1472.731689 1143.467285,1473.213379 1142.358276,1473.496338 
	C1117.886963,1480.316406 1093.279541,1478.973755 1068.778442,1478.887573 
	C1054.818481,1478.838379 1050.987427,1474.534180 1052.338257,1460.602905 
	C1053.143555,1452.298096 1053.958374,1444.030884 1051.178345,1435.041992 
	C1051.807373,1431.731079 1053.969482,1432.529663 1055.841187,1432.533691 
	C1071.029175,1432.566650 1086.218262,1432.518921 1101.404663,1432.693726 
	C1108.399902,1432.774170 1115.240479,1432.233643 1122.669434,1429.783691 
	C1135.014526,1425.156494 1142.113770,1416.897949 1144.430908,1403.728516 
	C1145.352051,1399.334961 1146.032471,1395.775635 1146.027954,1392.079590 
	C1145.930054,1313.393433 1146.209351,1234.707031 1145.699951,1155.105225 
	C1145.441895,1153.578125 1145.339844,1152.967163 1145.814087,1151.627441 
	C1148.937744,1150.925415 1151.485229,1150.952148 1154.781982,1151.121948 
	C1158.787720,1151.875488 1162.013062,1153.226929 1165.965698,1151.495850 
z"/>
<!-- #endregion letter 2 part 2 -->
<!-- #region letter 3 -->
<path class="main_letter" id="main_letter_3" 
	d="
M1238.819458,1152.874023 
	C1239.678955,1149.949829 1241.808594,1150.732178 1243.719116,1150.732666 
	C1322.952637,1150.750610 1402.186646,1150.605103 1481.419312,1150.872803 
	C1511.809448,1150.975586 1535.528564,1163.622314 1552.394531,1189.582764 
	C1562.360107,1204.921997 1567.469482,1221.170288 1567.071289,1239.233887 
	C1566.822754,1250.502686 1567.650635,1261.731812 1565.792725,1273.054199 
	C1561.324951,1300.279297 1546.994995,1320.061523 1522.352051,1333.305176 
	C1514.510254,1332.929077 1509.371094,1338.968018 1501.648071,1339.590820 
	C1434.677490,1340.249512 1368.537354,1339.790771 1302.398071,1340.021606 
	C1298.107300,1340.036621 1293.748413,1339.397827 1288.753296,1341.328735 
	C1284.588379,1344.103394 1285.315674,1347.656860 1285.317017,1350.871094 
	C1285.336182,1393.609741 1285.413940,1436.348389 1284.728516,1479.488037 
	C1273.401367,1479.545898 1262.822388,1479.213501 1252.243042,1478.894409 
	C1241.625000,1478.574097 1239.922974,1477.017334 1240.069580,1466.623291 
	C1240.435669,1440.703979 1240.663940,1414.750977 1240.451172,1388.866943 
	C1240.197021,1357.962280 1240.847290,1327.033447 1239.745850,1295.208252 
	C1305.872314,1294.230347 1372.005493,1294.175293 1438.138550,1294.121338 
	C1452.429932,1294.109619 1466.721802,1294.039551 1481.012695,1294.117798 
	C1488.818726,1294.160522 1496.179443,1292.685059 1503.655273,1288.434570 
	C1508.966797,1288.601318 1511.091919,1285.014038 1512.651367,1281.999634 
	C1523.618896,1260.799927 1524.706909,1238.558594 1516.921143,1216.339844 
	C1512.134399,1202.679810 1500.132568,1198.200317 1486.518066,1198.025757 
	C1446.255493,1197.509888 1405.990723,1198.125977 1365.726807,1197.927856 
	C1327.789429,1197.741211 1289.852051,1197.928223 1251.914673,1197.941284 
	C1241.942993,1197.944702 1240.201416,1196.111816 1240.043457,1186.358032 
	C1239.866577,1175.419922 1240.978882,1164.453003 1238.819458,1152.874023 
z"/>
<!-- #endregion letter 3 -->
<!-- #region letter 4 -->
<path class="main_letter" id="main_letter_4" 
	d="
M1617.089355,1295.261475 
	C1629.082520,1294.344727 1640.723145,1294.117676 1652.363770,1294.122803 
	C1660.941040,1294.126587 1661.378052,1294.528809 1661.411743,1303.136719 
	C1661.497803,1325.097046 1661.416382,1347.057983 1661.407471,1369.018677 
	C1661.403564,1378.670654 1661.908813,1388.353760 1661.307007,1397.967773 
	C1660.223145,1415.284302 1677.868042,1432.632324 1695.406006,1432.486328 
	C1749.651367,1432.034912 1803.902710,1432.224731 1858.151489,1432.348022 
	C1865.026367,1432.363647 1871.261108,1430.647217 1878.112061,1427.939575 
	C1891.986572,1421.862549 1897.902100,1411.213013 1898.313599,1397.079224 
	C1899.576904,1353.677734 1898.597778,1310.278931 1898.495239,1266.877563 
	C1898.469482,1255.935669 1898.950928,1245.029175 1898.097412,1234.067139 
	C1896.390015,1212.136841 1882.832031,1198.462036 1860.744019,1198.056152 
	C1821.246216,1197.330200 1781.738403,1197.736572 1742.235962,1197.953491 
	C1727.291138,1198.035522 1712.354248,1197.104980 1697.401611,1197.896118 
	C1691.611572,1198.202271 1686.199951,1199.242798 1680.695190,1202.932373 
	C1671.492798,1210.854736 1664.448120,1219.300415 1662.145996,1231.525513 
	C1651.009766,1231.742676 1640.423340,1231.710449 1629.830811,1231.939575 
	C1618.284302,1232.189331 1616.383789,1229.804077 1618.878052,1218.243042 
	C1621.724365,1205.050537 1627.559692,1193.221558 1636.138428,1181.900635 
	C1642.782959,1174.485107 1650.020752,1168.803467 1657.255981,1162.274658 
	C1668.328613,1153.531250 1681.098145,1150.979004 1694.102783,1150.905884 
	C1749.735352,1150.593262 1805.371338,1150.629150 1861.004883,1150.854614 
	C1895.416748,1150.994019 1925.386597,1174.839111 1937.046875,1204.691650 
	C1941.316895,1215.623169 1943.540894,1226.787842 1943.471680,1238.718140 
	C1943.156860,1293.012695 1943.900391,1347.317627 1943.161621,1401.603882 
	C1942.768677,1430.467529 1929.562256,1453.141235 1903.835938,1468.216309 
	C1900.177979,1469.444580 1897.219849,1470.859619 1893.649170,1472.919922 
	C1866.400757,1483.014771 1838.856323,1478.101440 1811.800293,1478.624268 
	C1771.590088,1479.401367 1731.344971,1479.248535 1691.122437,1478.574707 
	C1679.006348,1478.371826 1667.303955,1474.960693 1657.315063,1467.977295 
	C1631.519775,1449.943970 1616.416138,1426.091919 1617.023682,1393.416382 
	C1617.626953,1360.968994 1616.001465,1328.510254 1617.089355,1295.261475 
z"/>
<!-- #endregion letter 4 -->
<!-- #region letter 5 -->
<path class="main_letter" id="main_letter_5" 
	d="
M2225.787109,1152.820679 
	C2236.899170,1150.668823 2247.439941,1150.860840 2258.997070,1151.452637 
	C2265.553223,1150.648926 2268.064209,1153.622925 2269.469482,1159.838623 
	C2269.729736,1213.681274 2269.713623,1266.248413 2269.786133,1318.808960 
	C2269.856689,1370.034912 2269.401611,1421.267578 2270.243652,1473.400146 
	C2270.219971,1475.245239 2270.061768,1476.183960 2269.461426,1478.480347 
	C2258.438965,1479.322266 2247.843750,1479.275879 2237.261719,1478.881104 
	C2227.930420,1478.533081 2225.648438,1476.086914 2225.073975,1466.846680 
	C2225.032959,1466.183472 2225.040527,1465.516724 2225.041016,1464.851440 
	C2225.099121,1361.089111 2224.845703,1257.326782 2225.787109,1152.820679 
z"/>
<!-- #endregion letter 5 -->
<!-- #region letter 6  part 1-->
<path class="main_letter" id="main_letter_6_1"  
	d="
M2318.371826,1153.044922 
	C2319.642578,1149.971802 2321.772217,1150.754028 2323.683105,1150.754272 
	C2380.346680,1150.760132 2437.010254,1150.770874 2493.673828,1150.784424 
	C2495.673584,1150.784912 2497.673340,1150.813232 2499.673096,1150.839111 
	C2503.355713,1150.886719 2505.147461,1152.907959 2505.290283,1156.439941 
	C2505.411621,1159.433472 2505.376953,1162.434082 2505.379150,1165.431641 
	C2505.458496,1269.401245 2505.535400,1373.370850 2505.594971,1477.340454 
	C2505.595459,1477.994873 2505.357666,1478.649536 2504.358887,1479.824341 
	C2502.942871,1480.236206 2502.398438,1480.127808 2501.033203,1479.865723 
	C2490.973877,1477.907715 2481.625000,1479.379150 2472.333984,1478.773071 
	C2461.404541,1478.060059 2460.190674,1477.116455 2460.168457,1466.568237 
	C2460.040039,1405.707275 2460.021484,1344.846069 2460.072998,1283.985229 
	C2460.096191,1256.755005 2459.673096,1229.522339 2459.935303,1201.476562 
	C2456.777344,1196.501343 2452.409180,1198.098022 2448.661621,1198.061523 
	C2409.875977,1197.683594 2371.088379,1197.988525 2332.301514,1197.970947 
	C2320.614990,1197.965576 2319.410400,1196.645020 2319.075928,1184.762329 
	C2318.787109,1174.488037 2319.700928,1164.189331 2318.371826,1153.044922 
z"/>
<!-- #endregion letter 6 part 1 -->
<!-- #region letter 6 part 2 -->
<path class="main_letter" id="main_letter_6_2"   
	d="
M2556.834473,1152.918213 
	C2557.382080,1150.421631 2559.036865,1150.655029 2560.698975,1150.658936 
	C2585.548340,1150.719116 2610.397949,1150.740112 2635.247314,1150.784668 
	C2645.726807,1150.803467 2646.902344,1151.862305 2647.036621,1162.794067 
	C2647.182617,1174.685425 2647.020996,1186.580566 2646.265625,1198.750244 
	C2629.364746,1196.945190 2613.119629,1198.193359 2596.906982,1197.996582 
	C2589.278320,1197.904053 2581.646729,1197.992065 2574.016602,1197.988159 
	C2557.848389,1197.980103 2557.793701,1197.975708 2558.037598,1181.363281 
	C2558.173584,1172.111450 2558.635742,1162.860107 2556.834473,1152.918213 
z"/>
<!-- #endregion letter 6 part 2 -->
<!-- #region letter 7 -->
<path class="main_letter" id="main_letter_7"  
	d="
M2694.957520,1152.927979 
	C2695.805908,1149.913208 2697.942871,1150.717651 2699.851562,1150.718262 
	C2779.105469,1150.741455 2858.362549,1151.208130 2937.612061,1150.625000 
	C2986.863281,1150.262695 3023.347412,1192.619507 3023.325195,1236.231934 
	C3023.297119,1291.172363 3023.732910,1346.116577 3023.201904,1401.051758 
	C3022.942383,1427.936157 3011.342773,1449.740601 2988.655273,1465.760864 
	C2965.612549,1479.950806 2940.669189,1479.135498 2915.629150,1478.882935 
	C2868.370361,1478.406006 2821.106201,1478.999268 2773.843018,1478.750610 
	C2752.208252,1478.636841 2730.566162,1478.917358 2708.928955,1478.799194 
	C2698.005859,1478.739502 2697.417480,1478.066284 2696.943848,1467.006226 
	C2695.923828,1443.195435 2696.531494,1419.382202 2697.001465,1395.565430 
	C2697.656494,1362.401367 2695.512207,1329.239258 2697.084961,1295.277100 
	C2709.414795,1294.359131 2721.393555,1294.111938 2733.371094,1294.152954 
	C2740.692627,1294.178101 2741.325684,1294.760132 2741.372070,1302.186157 
	C2741.499023,1322.490967 2741.396240,1342.797363 2741.381348,1363.103027 
	C2741.366455,1383.411743 2741.288330,1403.720703 2741.359375,1424.029053 
	C2741.387939,1432.181519 2741.535889,1432.292480 2749.768311,1432.296509 
	C2812.031250,1432.326660 2874.294189,1432.285278 2936.557129,1432.346191 
	C2942.607666,1432.352051 2948.485352,1431.681763 2955.079346,1429.795410 
	C2963.175537,1427.808472 2968.563477,1423.376221 2972.991211,1416.509277 
	C2978.672852,1406.564941 2979.804688,1395.915771 2979.056396,1386.025635 
	C2977.546631,1366.071899 2978.777588,1346.236816 2978.728271,1326.349731 
	C2978.682861,1308.119385 2977.132324,1289.857910 2978.386475,1271.664673 
	C2979.327881,1258.005615 2978.581055,1244.459961 2977.354980,1230.972900 
	C2975.501709,1210.585693 2961.530273,1198.492065 2940.601074,1198.003540 
	C2915.685547,1197.421875 2890.766357,1197.937500 2865.849365,1197.963135 
	C2813.313965,1198.016968 2760.778809,1197.732056 2708.242920,1197.942139 
	C2698.306641,1197.981812 2695.093994,1194.656738 2696.290771,1184.379028 
	C2697.498779,1174.004517 2695.725830,1163.872681 2694.957520,1152.927979 
z"/>
<!-- #endregion slogan letter 7 -->
</svg>